<svg xmlns="http://www.w3.org/2000/svg" version="1.1" xmlns:xlink="http://www.w3.org/1999/xlink" xmlns:svgjs="http://svgjs.dev/svgjs" width="1000" height="1000" viewBox="0 0 1000 1000"><rect width="1000" height="1000" fill="#ffffff"></rect><g transform="matrix(0.7,0,0,0.7,149.57575757575756,282.1265587044535)"><svg viewBox="0 0 396 247" data-background-color="#ffffff" preserveAspectRatio="xMidYMid meet" height="623" width="1000" xmlns="http://www.w3.org/2000/svg" xmlns:xlink="http://www.w3.org/1999/xlink"><g id="tight-bounds" transform="matrix(1,0,0,1,0.2400000000000091,-0.09999999999999432)"><svg viewBox="0 0 395.52 247.2" height="247.2" width="395.52"><g><svg></svg></g><g><svg viewBox="0 0 395.52 247.2" height="247.2" width="395.52"><g><g><path d="M122.785 52.394c-6.475-3.774-15.671-5.661-27.589-5.661-12.513 0-21.848 2.225-28.005 6.674-6.157 4.489-9.236 10.209-9.236 17.161 0 2.383 0.596 4.966 1.787 7.746 1.192 2.781 3.575 5.462 7.151 8.044 3.575 2.582 8.64 4.866 15.194 6.853l9.411 2.68-79.937 0c-2.042-6.058-3.063-12.314-3.063-18.769 0-12.712 3.516-24.133 10.546-34.262 7.071-10.13 17.022-18.134 29.853-24.013 12.791-5.84 27.728-8.759 44.81-8.76 11.321 0 21.908 1.291 31.759 3.873 9.812 2.582 18.69 6.157 26.636 10.726 7.945 4.568 14.4 10.13 19.365 16.684 0.794 0.993 1.39 2.125 1.788 3.397 0.397 1.311-0.199 2.662-1.788 4.052l-25.026 18.472c-1.192 0.794-2.284 1.033-3.277 0.715-0.993-0.278-2.383-1.212-4.171-2.801-4.37-4.767-9.772-9.037-16.208-12.811zM181.597 168.886c0 13.904-3.575 25.96-10.726 36.169-7.15 10.249-17.379 18.154-30.687 23.716-13.308 5.561-29.098 8.342-47.371 8.342-13.506 0-26.159-1.549-37.957-4.648-11.838-3.059-22.266-7.528-31.283-13.407-9.057-5.84-16.168-12.632-21.332-20.379-0.993-1.986-1.39-3.635-1.192-4.945 0.199-1.271 1.192-2.602 2.98-3.993l22.941-15.79c2.383-1.39 4.33-1.986 5.839-1.788 1.47 0.199 2.801 0.993 3.992 2.384 4.767 5.959 9.494 10.924 14.182 14.896 4.648 3.972 10.05 6.852 16.208 8.64 6.157 1.788 13.506 2.681 22.047 2.682 12.91 0 23.239-2.046 30.985-6.138 7.746-4.052 11.619-10.348 11.619-18.889 0-3.377-0.794-6.515-2.383-9.414-1.589-2.86-4.111-5.442-7.568-7.747-3.496-2.264-8.422-4.39-14.777-6.375l-3.135-0.893h75.351c1.512 5.546 2.267 11.405 2.267 17.577zM335.212 15.033c10.011 3.257 18.988 7.865 26.933 13.824 7.945 5.959 14.46 12.91 19.544 20.855 5.045 7.945 8.362 16.585 9.951 25.921 0.794 3.178 0.953 5.263 0.477 6.256-0.516 0.993-1.668 1.589-3.456 1.788l-40.221 2.681c-1.788 0-2.92-0.358-3.396-1.072-0.516-0.675-0.973-1.807-1.371-3.397-2.185-10.328-6.455-18.829-12.811-25.503-6.356-6.634-15.195-9.951-26.516-9.951-14.897 0-26.556 5.998-34.978 17.995-5.319 7.567-8.966 18.054-10.941 31.461l-54.347 0c1.95-12.352 5.379-23.534 10.29-33.546 8.144-16.565 19.763-29.416 34.858-38.553 15.095-9.137 32.971-13.705 53.628-13.705 11.52 0 22.305 1.649 32.356 4.946zM268.772 180.684c8.024 11.997 20.081 17.995 36.17 17.995 11.52 0 21.451-2.88 29.793-8.64 8.342-5.76 15.195-15.592 20.557-29.495 0.794-1.788 2.979-2.383 6.555-1.788l29.197 6.257c0.993 0.199 1.887 0.735 2.682 1.609 0.794 0.914 0.993 2.86 0.596 5.839-0.993 4.171-2.92 9.037-5.78 14.599-2.9 5.561-6.733 11.262-11.5 17.101-4.767 5.879-10.666 11.302-17.698 16.267-7.071 4.966-15.274 8.978-24.609 12.037-9.335 3.099-19.962 4.648-31.879 4.648-20.458 0-38.275-4.866-53.449-14.599-15.214-9.732-26.893-23.239-35.037-40.519-4.432-9.405-7.658-19.634-9.678-30.686h53.945c1.94 12.393 5.318 22.185 10.135 29.375z" fill="#8691ed" fill-rule="nonzero" stroke="none" stroke-width="1" stroke-linecap="butt" stroke-linejoin="miter" stroke-miterlimit="10" stroke-dasharray="" stroke-dashoffset="0" font-family="none" font-weight="none" font-size="none" text-anchor="none" style="mix-blend-mode: normal" data-fill-palette-color="tertiary"></path></g></g><g transform="matrix(1,0,0,1,0,104.77786834354794)"><svg viewBox="0 0 395.52 37.64426331290413" height="37.64426331290413" width="395.52"><g><svg viewBox="0 0 395.52 37.64426331290413" height="37.64426331290413" width="395.52"><g><svg viewBox="0 0 395.52 37.64426331290413" height="37.64426331290413" width="395.52"><g><svg viewBox="0 0 395.52 37.64426331290413" height="37.64426331290413" width="395.52"><g><svg viewBox="0 0 395.52 37.64426331290413" height="37.64426331290413" width="395.52"><g><svg viewBox="0 0 395.52 37.64426331290413" height="37.64426331290413" width="395.52"><g transform="matrix(1,0,0,1,0,0)"><svg width="395.52" viewBox="1.6416666666666666 -37.6 400.2683333333334 38.1" height="37.64426331290413" data-palette-color="#8691ed"><path d="M24.8-28.35L24.8-28.35Q23.7-29.55 22.08-30.5 20.45-31.45 17.45-31.45L17.45-31.45Q14.3-31.45 12.75-30.33 11.2-29.2 11.2-27.45L11.2-27.45Q11.2-26.85 11.5-26.15 11.8-25.45 12.7-24.8 13.6-24.15 15.25-23.65L15.25-23.65 23.15-21.4Q27.75-20.15 29.85-17.38 31.95-14.6 31.95-10.95L31.95-10.95Q31.95-7.45 30.15-4.88 28.35-2.3 25-0.9 21.65 0.5 17.05 0.5L17.05 0.5Q13.65 0.5 10.68-0.28 7.7-1.05 5.43-2.53 3.15-4 1.85-5.95L1.85-5.95Q1.6-6.45 1.65-6.78 1.7-7.1 2.15-7.45L2.15-7.45 6-10.1Q6.6-10.45 6.98-10.4 7.35-10.35 7.65-10L7.65-10Q8.85-8.5 10.03-7.5 11.2-6.5 12.75-6.05 14.3-5.6 16.45-5.6L16.45-5.6Q19.7-5.6 21.65-6.63 23.6-7.65 23.6-9.8L23.6-9.8Q23.6-10.65 23.2-11.38 22.8-12.1 21.93-12.68 21.05-13.25 19.45-13.75L19.45-13.75 11.9-15.9Q8.95-16.75 6.95-18.3 4.95-19.85 3.93-21.95 2.9-24.05 2.9-26.35L2.9-26.35Q2.9-29.55 4.67-32.1 6.45-34.65 9.68-36.13 12.9-37.6 17.2-37.6L17.2-37.6Q20.05-37.6 22.53-36.95 25-36.3 27-35.15 29-34 30.25-32.35L30.25-32.35Q30.45-32.1 30.55-31.78 30.65-31.45 30.25-31.1L30.25-31.1 26.05-28Q25.75-27.8 25.5-27.88 25.25-27.95 24.8-28.35L24.8-28.35ZM43.35-11L43.35-11Q43.35-9.15 44.22-7.73 45.1-6.3 46.57-5.53 48.05-4.75 49.9-4.75L49.9-4.75Q51.7-4.75 53.22-5.53 54.75-6.3 56.3-8.1L56.3-8.1Q56.5-8.3 56.65-8.33 56.8-8.35 57.2-8.15L57.2-8.15 60.8-6.65Q61.5-6.35 60.95-5.65L60.95-5.65Q59.35-3.35 57.6-2 55.85-0.65 53.72-0.08 51.6 0.5 48.95 0.5L48.95 0.5Q45.05 0.5 42-1.2 38.95-2.9 37.17-5.93 35.4-8.95 35.4-12.85L35.4-12.85Q35.4-17.15 37.22-20.33 39.05-23.5 42.1-25.25 45.15-27 48.8-27L48.8-27Q52.65-27 55.55-25.33 58.45-23.65 60.12-20.55 61.8-17.45 61.8-13L61.8-13Q61.8-12.45 61.7-12.15 61.6-11.85 60.95-11.8L60.95-11.8 43.95-11.8Q43.65-11.8 43.5-11.6 43.35-11.4 43.35-11L43.35-11ZM43.45-16.05L53.4-16Q53.95-16 54.1-16.13 54.25-16.25 54.25-16.7L54.25-16.7Q54.25-17.95 53.67-19.25 53.1-20.55 51.97-21.43 50.85-22.3 49.1-22.3L49.1-22.3Q47.45-22.3 46.15-21.5 44.85-20.7 44.15-19.28 43.45-17.85 43.45-16.05L43.45-16.05ZM66.95 0L66.95 0Q66.4 0 66.15-0.25 65.9-0.5 65.9-1L65.9-1 65.9-25.55Q65.9-26.5 66.7-26.5L66.7-26.5 72.55-26.5Q73.35-26.5 73.35-25.65L73.35-25.65 73.35-22.7Q73.35-22.4 73.57-22.33 73.8-22.25 74.05-22.55L74.05-22.55Q75.05-23.9 76.32-24.9 77.6-25.9 78.95-26.45 80.3-27 81.5-27L81.5-27Q83.3-27 83.3-26.15L83.3-26.15 83.3-20.35Q83.3-19.55 82.55-19.7L82.55-19.7Q81.65-19.95 80.7-20.03 79.75-20.1 79.05-20.1L79.05-20.1Q78.15-20.1 77.17-19.75 76.2-19.4 75.4-18.75 74.6-18.1 74.1-17.35 73.6-16.6 73.6-15.75L73.6-15.75 73.6-1.15Q73.6 0 72.3 0L72.3 0 66.95 0ZM111.34-26.5L111.34-26.5Q111.84-26.5 112.02-26.15 112.19-25.8 112.04-25.35L112.04-25.35 102.14-1.05Q101.69 0 100.54 0L100.54 0 96.99 0Q95.79 0 95.39-1.05L95.39-1.05 85.54-25.3Q85.34-25.8 85.57-26.15 85.79-26.5 86.29-26.5L86.29-26.5 92.64-26.5Q93.04-26.5 93.34-26.28 93.64-26.05 93.74-25.65L93.74-25.65 99.49-10.9Q99.84-9.95 100.29-10.95L100.29-10.95 105.94-25.7Q106.09-26.05 106.37-26.28 106.64-26.5 107.04-26.5L107.04-26.5 111.34-26.5ZM123.54-25.65L123.54-1.2Q123.54-0.55 123.24-0.28 122.94 0 122.19 0L122.19 0 116.94 0Q116.29 0 116.07-0.25 115.84-0.5 115.84-1.05L115.84-1.05 115.84-25.55Q115.84-26.5 116.64-26.5L116.64-26.5 122.79-26.5Q123.54-26.5 123.54-25.65L123.54-25.65ZM123.64-36.15L123.64-30.95Q123.64-29.7 122.29-29.7L122.29-29.7 116.89-29.7Q116.24-29.7 116.02-30 115.79-30.3 115.79-30.85L115.79-30.85 115.79-36.1Q115.79-37.1 116.64-37.1L116.64-37.1 122.84-37.1Q123.64-37.1 123.64-36.15L123.64-36.15ZM141.19-27L141.19-27Q144.44-27 146.71-25.88 148.99-24.75 150.44-23 151.89-21.25 152.49-19.4L152.49-19.4Q152.84-18.4 151.89-18.35L151.89-18.35 146.64-17.85Q146.09-17.8 145.89-18.4L145.89-18.4Q145.44-19.35 144.89-20.15 144.34-20.95 143.54-21.45 142.74-21.95 141.44-21.95L141.44-21.95Q139.74-21.95 138.44-21 137.14-20.05 136.41-18.13 135.69-16.2 135.69-13.25L135.69-13.25Q135.69-10.25 136.44-8.3 137.19-6.35 138.56-5.4 139.94-4.45 141.84-4.45L141.84-4.45Q144.04-4.45 145.31-5.6 146.59-6.75 147.74-8.7L147.74-8.7Q147.89-8.95 148.04-9 148.19-9.05 148.59-8.95L148.59-8.95 152.29-8.1Q152.84-7.95 152.64-7.15L152.64-7.15Q152.24-6.05 151.39-4.7 150.54-3.35 149.16-2.2 147.79-1.05 145.81-0.28 143.84 0.5 141.19 0.5L141.19 0.5Q137.34 0.5 134.34-1.23 131.34-2.95 129.61-6.03 127.89-9.1 127.89-13.15L127.89-13.15Q127.89-17.25 129.64-20.38 131.39-23.5 134.39-25.25 137.39-27 141.19-27L141.19-27ZM163.24-11L163.24-11Q163.24-9.15 164.11-7.73 164.99-6.3 166.46-5.53 167.94-4.75 169.79-4.75L169.79-4.75Q171.59-4.75 173.11-5.53 174.64-6.3 176.19-8.1L176.19-8.1Q176.39-8.3 176.54-8.33 176.69-8.35 177.09-8.15L177.09-8.15 180.69-6.65Q181.39-6.35 180.84-5.65L180.84-5.65Q179.24-3.35 177.49-2 175.74-0.65 173.61-0.08 171.49 0.5 168.84 0.5L168.84 0.5Q164.94 0.5 161.89-1.2 158.84-2.9 157.06-5.93 155.29-8.95 155.29-12.85L155.29-12.85Q155.29-17.15 157.11-20.33 158.94-23.5 161.99-25.25 165.04-27 168.69-27L168.69-27Q172.54-27 175.44-25.33 178.34-23.65 180.01-20.55 181.69-17.45 181.69-13L181.69-13Q181.69-12.45 181.59-12.15 181.49-11.85 180.84-11.8L180.84-11.8 163.84-11.8Q163.54-11.8 163.39-11.6 163.24-11.4 163.24-11L163.24-11ZM163.34-16.05L173.29-16Q173.84-16 173.99-16.13 174.14-16.25 174.14-16.7L174.14-16.7Q174.14-17.95 173.56-19.25 172.99-20.55 171.86-21.43 170.74-22.3 168.99-22.3L168.99-22.3Q167.34-22.3 166.04-21.5 164.74-20.7 164.04-19.28 163.34-17.85 163.34-16.05L163.34-16.05ZM202.13-19.6L202.13-19.6Q201.28-20.7 199.83-21.5 198.38-22.3 196.28-22.3L196.28-22.3Q194.43-22.3 193.16-21.58 191.88-20.85 191.88-19.6L191.88-19.6Q191.88-18.95 192.38-18.38 192.88-17.8 194.68-17.35L194.68-17.35 200.43-15.95Q204.58-15 206.33-12.85 208.08-10.7 208.08-8.05L208.08-8.05Q208.08-5.35 206.56-3.45 205.03-1.55 202.33-0.53 199.63 0.5 196.13 0.5L196.13 0.5Q191.68 0.5 188.58-1.07 185.48-2.65 184.23-5L184.23-5Q184.03-5.35 184.03-5.68 184.03-6 184.33-6.15L184.33-6.15 187.73-7.9Q188.23-8.15 188.51-8.13 188.78-8.1 188.98-7.85L188.98-7.85Q189.63-6.95 190.53-6.15 191.43-5.35 192.78-4.88 194.13-4.4 196.18-4.45L196.18-4.45Q197.58-4.45 198.71-4.78 199.83-5.1 200.48-5.73 201.13-6.35 201.13-7.2L201.13-7.2Q201.13-8.05 200.43-8.68 199.73-9.3 197.83-9.75L197.83-9.75 192.68-10.85Q188.93-11.7 187.01-13.53 185.08-15.35 185.08-18.3L185.08-18.3Q185.08-20.85 186.41-22.8 187.73-24.75 190.28-25.88 192.83-27 196.38-27L196.38-27Q200.18-27 202.96-25.6 205.73-24.2 206.93-22.25L206.93-22.25Q207.13-21.95 207.23-21.63 207.33-21.3 206.88-21.05L206.88-21.05 203.28-19.3Q202.93-19.15 202.66-19.23 202.38-19.3 202.13-19.6L202.13-19.6ZM234.68-27L234.68-27Q237.93-27 240.2-25.88 242.48-24.75 243.93-23 245.38-21.25 245.98-19.4L245.98-19.4Q246.33-18.4 245.38-18.35L245.38-18.35 240.13-17.85Q239.58-17.8 239.38-18.4L239.38-18.4Q238.93-19.35 238.38-20.15 237.83-20.95 237.03-21.45 236.23-21.95 234.93-21.95L234.93-21.95Q233.23-21.95 231.93-21 230.63-20.05 229.9-18.13 229.18-16.2 229.18-13.25L229.18-13.25Q229.18-10.25 229.93-8.3 230.68-6.35 232.05-5.4 233.43-4.45 235.33-4.45L235.33-4.45Q237.53-4.45 238.8-5.6 240.08-6.75 241.23-8.7L241.23-8.7Q241.38-8.95 241.53-9 241.68-9.05 242.08-8.95L242.08-8.95 245.78-8.1Q246.33-7.95 246.13-7.15L246.13-7.15Q245.73-6.05 244.88-4.7 244.03-3.35 242.65-2.2 241.28-1.05 239.3-0.28 237.33 0.5 234.68 0.5L234.68 0.5Q230.83 0.5 227.83-1.23 224.83-2.95 223.1-6.03 221.38-9.1 221.38-13.15L221.38-13.15Q221.38-17.25 223.13-20.38 224.88-23.5 227.88-25.25 230.88-27 234.68-27L234.68-27ZM262.18 0.5L262.18 0.5Q258.23 0.5 255.2-1.25 252.18-3 250.48-6.08 248.78-9.15 248.78-13.1L248.78-13.1Q248.78-17.25 250.53-20.38 252.28-23.5 255.33-25.25 258.38-27 262.23-27L262.23-27Q266.28-27 269.28-25.23 272.28-23.45 273.95-20.33 275.63-17.2 275.63-13.15L275.63-13.15Q275.63-9.15 273.93-6.08 272.23-3 269.2-1.25 266.18 0.5 262.18 0.5L262.18 0.5ZM262.23-4.6L262.23-4.6Q264.08-4.6 265.33-5.58 266.58-6.55 267.2-8.5 267.83-10.45 267.83-13.25L267.83-13.25Q267.83-16.2 267.2-18.13 266.58-20.05 265.33-21.05 264.08-22.05 262.23-22.05L262.23-22.05Q260.43-22.05 259.15-21.05 257.88-20.05 257.23-18.13 256.58-16.2 256.58-13.25L256.58-13.25Q256.58-10.4 257.23-8.47 257.88-6.55 259.15-5.58 260.43-4.6 262.23-4.6L262.23-4.6ZM280.97 0L280.97 0Q279.92 0 279.92-1L279.92-1 279.92-25.55Q279.92-26.5 280.72-26.5L280.72-26.5 286.77-26.5Q287.52-26.5 287.52-25.65L287.52-25.65 287.52-23.2Q287.52-22.9 287.67-22.8 287.82-22.7 288.12-23L288.12-23Q289.42-24.2 290.72-25.1 292.02-26 293.47-26.5 294.92-27 296.57-27L296.57-27Q300.22-27 302.35-24.85 304.47-22.7 304.47-19.1L304.47-19.1 304.47-1.2Q304.47 0 303.27 0L303.27 0 297.72 0Q297.22 0 297-0.23 296.77-0.45 296.77-1L296.77-1 296.77-17.9Q296.77-19.6 295.85-20.53 294.92-21.45 293.12-21.45L293.12-21.45Q292.07-21.45 291.17-21.1 290.27-20.75 289.42-20.08 288.57-19.4 287.62-18.35L287.62-18.35 287.62-1.15Q287.62 0 286.32 0L286.32 0 280.97 0ZM325.32-21.2L320.02-21.2Q319.47-21.2 319.47-20.6L319.47-20.6 319.47-8.55Q319.47-6.85 320.27-6.13 321.07-5.4 322.82-5.4L322.82-5.4 325.52-5.4Q325.87-5.4 326.07-5.15 326.27-4.9 326.27-4.55L326.27-4.55 326.22-1.5Q326.22-0.55 325.12-0.3L325.12-0.3Q324.22-0.2 323.2-0.13 322.17-0.05 321.15-0.03 320.12 0 319.17 0L319.17 0Q315.77 0 313.77-1.63 311.77-3.25 311.77-6.45L311.77-6.45 311.77-20.45Q311.77-21.2 311.12-21.2L311.12-21.2 308.07-21.2Q307.12-21.2 307.12-22.05L307.12-22.05 307.12-25.75Q307.12-26.5 308.02-26.5L308.02-26.5 311.47-26.5Q311.92-26.5 311.97-27.05L311.97-27.05 312.67-34.65Q312.72-35.5 313.42-35.5L313.42-35.5 318.87-35.5Q319.67-35.5 319.67-34.55L319.67-34.55 319.67-27.05Q319.67-26.55 320.17-26.55L320.17-26.55 325.42-26.55Q326.32-26.55 326.32-25.75L326.32-25.75 326.32-22.05Q326.32-21.2 325.32-21.2L325.32-21.2ZM331.52 0L331.52 0Q330.97 0 330.72-0.25 330.47-0.5 330.47-1L330.47-1 330.47-25.55Q330.47-26.5 331.27-26.5L331.27-26.5 337.12-26.5Q337.92-26.5 337.92-25.65L337.92-25.65 337.92-22.7Q337.92-22.4 338.14-22.33 338.37-22.25 338.62-22.55L338.62-22.55Q339.62-23.9 340.89-24.9 342.17-25.9 343.52-26.45 344.87-27 346.07-27L346.07-27Q347.87-27 347.87-26.15L347.87-26.15 347.87-20.35Q347.87-19.55 347.12-19.7L347.12-19.7Q346.22-19.95 345.27-20.03 344.32-20.1 343.62-20.1L343.62-20.1Q342.72-20.1 341.74-19.75 340.77-19.4 339.97-18.75 339.17-18.1 338.67-17.35 338.17-16.6 338.17-15.75L338.17-15.75 338.17-1.15Q338.17 0 336.87 0L336.87 0 331.52 0ZM363.12 0.5L363.12 0.5Q359.17 0.5 356.14-1.25 353.12-3 351.42-6.08 349.72-9.15 349.72-13.1L349.72-13.1Q349.72-17.25 351.47-20.38 353.22-23.5 356.27-25.25 359.32-27 363.17-27L363.17-27Q367.22-27 370.22-25.23 373.22-23.45 374.89-20.33 376.57-17.2 376.57-13.15L376.57-13.15Q376.57-9.15 374.87-6.08 373.17-3 370.14-1.25 367.12 0.5 363.12 0.5L363.12 0.5ZM363.17-4.6L363.17-4.6Q365.02-4.6 366.27-5.58 367.52-6.55 368.14-8.5 368.77-10.45 368.77-13.25L368.77-13.25Q368.77-16.2 368.14-18.13 367.52-20.05 366.27-21.05 365.02-22.05 363.17-22.05L363.17-22.05Q361.37-22.05 360.09-21.05 358.82-20.05 358.17-18.13 357.52-16.2 357.52-13.25L357.52-13.25Q357.52-10.4 358.17-8.47 358.82-6.55 360.09-5.58 361.37-4.6 363.17-4.6L363.17-4.6ZM388.61-36.2L388.61-1.2Q388.61-0.55 388.31-0.28 388.01 0 387.26 0L387.26 0 381.96 0Q380.86 0 380.86-1.05L380.86-1.05 381.01-36.15Q381.01-37.1 381.81-37.1L381.81-37.1 387.86-37.1Q388.61-37.1 388.61-36.2L388.61-36.2ZM401.91-36.2L401.91-1.2Q401.91-0.55 401.61-0.28 401.31 0 400.56 0L400.56 0 395.26 0Q394.16 0 394.16-1.05L394.16-1.05 394.31-36.15Q394.31-37.1 395.11-37.1L395.11-37.1 401.16-37.1Q401.91-37.1 401.91-36.2L401.91-36.2Z" opacity="1" transform="matrix(1,0,0,1,0,0)" fill="#8691ed" class="undefined-text-0" data-fill-palette-color="primary" id="text-0"></path></svg></g></svg></g></svg></g></svg></g></svg></g></svg></g></svg></g></svg></g><defs></defs></svg><rect width="395.52" height="247.2" fill="none" stroke="none" visibility="hidden"></rect></g></svg></g></svg>